<svg height="512" viewBox="0 0 512 512" width="512" xmlns="http://www.w3.org/2000/svg"><g id="Corona_Virus_Symptoms_Shortness_of_breath" data-name="Corona Virus Symptoms Shortness of breath"><g id="Outline"><path d="m411.187 313.777-9.852-34.677c64.046-159.384 5.6-271.149-53.685-262.571-18.687-19.529-45.681-21.729-82.327-6.744-9.789 4-3.749 18.82 6.054 14.81 60.3-24.654 62.3 11.584 75.218 8.425 51.877-12.717 95.563 98.41 41.13 237.026-43.611-6.051-46.709-34-57.955-22.819a8 8 0 0 0 -.033 11.313c15.242 15.332 34.378 24.554 56.933 27.488l8.534 30.037c-71.32 66.725-105.343 58.035-98.589 74.247a8 8 0 0 0 10.462 4.308c44.813-18.669 84.01-52.85 97.684-65.563 124.855 98.262 73.35 182.943 99.239 182.943a8 8 0 0 0 8-8c0-83.829-35.724-140.066-100.813-190.223z"/><path d="m349.078 182.994c-13.848-48.743-67.7-33.367-56.054 7.61 2.891 10.174 18.285 5.815 15.391-4.374-5.943-20.917 17.395-26.592 25.273 1.137 4.774 16.806 2.407 32.582-14.341 37.341-10.183 2.893-5.81 18.281 4.373 15.39 25.438-7.227 32.727-31.17 25.358-57.104z"/><path d="m282.226 328.227c8.209 23.2 6.571 39.713 18.628 36.29a8 8 0 0 0 5.509-9.882l-10.933-38.477a8 8 0 0 0 -9.882-5.509c-54.712 13.812-60.7 21.441-72.92 14.629a19.869 19.869 0 0 1 -9.5-12c-10.149-31.5-7.95-38.052-15.363-40.142l-20.792-5.863c16.492-46.092 17.474-16.825.8-78.423 24.318 2.118 38.432-6.609 101.5-23.272 10.191-2.895 5.8-18.282-4.373-15.39l-71.59 20.338c-45.966 12.189-74.889-20.76-90.5-65.227 28.051 5.752 61.8-19.136 113.393-51.024 9.006-5.566.588-19.173-8.414-13.609-50.067 30.946-93.158 62.521-111.849 44.15-5.206-6.03-15.44-1.252-13.706 7.066 7.494 35.95 31.036 80.114 67.818 93.142l13.582 47.8c-20.381 53.789-25.2 41.614 15.482 54.491 8.021 21.883 6.17 41.037 25.717 51.934a35.755 35.755 0 0 0 27.369 3.185z"/><path d="m399.5 375.8a55.97 55.97 0 0 0 -55.766 56.229l.266 72c.039 10.668 16.039 10.57 16-.06l-.266-72a40 40 0 0 1 80-.336l.266 72a8 8 0 0 0 8 7.971c.1-.045 8.028-.354 8-8.03l-.266-72a56.069 56.069 0 0 0 -56.234-55.774z"/><path d="m273.191 425.267-.788-1.895c5.336-29.776 17.242-44.991 4.673-61.089-7.26-9.3-24.8-15.146-28.567-5.092-25.056 68.027-25.154 64.374-24.354 68.378 17.032 73.237 12 86.434 23.837 86.432a8 8 0 0 0 7.853-9.57l-15.553-77.761 20.778-55.406c11 5.9 3.135 16.117-4.831 52.8-1.127 4.5.5 3.95 16.375 43.476a8 8 0 0 0 8.953 4.772c10.562-2.11 4.86-15.531 6.433-36.308 0-13.437 16-13.443 16 0 0 48.031 1.936 48.75-13.657 64.343-7.479 7.478 3.824 18.8 11.314 11.314 21.016-21.02 18.343-28.926 18.343-75.661 0-31.156-39.255-34.539-46.809-8.733z"/><path d="m208 264c10.577 0 10.592-16 0-16-10.577 0-10.592 16 0 16z"/><path d="m8 320c-10.577 0-10.592 16 0 16s10.592-16 0-16z"/><path d="m40 336c10.577 0 10.592-16 0-16s-10.592 16 0 16z"/><path d="m72 336c10.577 0 10.592-16 0-16-10.577 0-10.592 16 0 16z"/><path d="m160 360c0 10.577 16 10.592 16 0s-16-10.592-16 0z"/><path d="m240 264c10.577 0 10.592-16 0-16-10.577 0-10.592 16 0 16z"/><path d="m344 328c0-10.577-16-10.592-16 0s16 10.592 16 0z"/><path d="m312 304c0 10.577 16 10.592 16 0s-16-10.592-16 0z"/><path d="m288 280c0 10.577 16 10.592 16 0s-16-10.592-16 0z"/><path d="m272 272c10.577 0 10.592-16 0-16s-10.592 16 0 16z"/><path d="m240 40c10.577 0 10.592-16 0-16-10.577 0-10.592 16 0 16z"/><path d="m64 304h72c10.576 0 10.592-16 0-16h-72a16.019 16.019 0 0 1 -16-16c0-21.177 32-21.15 32 0a8 8 0 0 0 8 8c16.807 0 6.5-40-24-40a32 32 0 0 0 0 64z"/><path d="m136 352h-72a32 32 0 1 0 32 32c0-10.576-16-10.592-16 0 0 21.177-32 21.15-32 0a16.019 16.019 0 0 1 16-16h72c10.576 0 10.592-16 0-16z"/><path d="m168 320h-64c-10.576 0-10.592 16 0 16h64c10.576 0 10.592-16 0-16z"/></g></g></svg>