<svg width="25" height="27" viewBox="0 0 25 27" fill="none" xmlns="http://www.w3.org/2000/svg">
<path d="M8 19C6.89721 19 6 19.8972 6 20.9999C6 22.1028 6.89721 23 8 23C9.10279 23 10 22.1028 10 20.9999C10 19.8972 9.10279 19 8 19ZM8 21.7499C7.58639 21.7499 7.24994 21.4135 7.24994 20.9999C7.24994 20.5865 7.58639 20.2501 8 20.2501C8.41344 20.2501 8.75006 20.5865 8.75006 20.9999C8.75006 21.4135 8.41361 21.7499 8 21.7499Z" fill="#3A8DAA"/>
<path d="M4.5 24C3.67285 24 3 24.6729 3 25.5C3 26.3271 3.67285 27 4.5 27C5.32695 27 6 26.3271 6 25.5C6 24.6729 5.32695 24 4.5 24Z" fill="#3A8DAA"/>
<path d="M7.68273 10.9494H6.40624L7.68995 8.99169C7.80527 8.81506 7.87024 8.6134 7.87024 8.42856C7.87024 8.13458 7.70438 8 7.52409 8H5.3678C5.17307 8 5.05053 8.24372 5.05053 8.52108C5.05053 8.81506 5.19473 9.05057 5.3678 9.05057H6.47121L5.19473 11.0083C5.10089 11.1513 5 11.3361 5 11.5462C5 11.7563 5.09367 12 5.3678 12H7.68273C7.87746 12 8 11.7563 8 11.4789C8 11.1847 7.8558 10.9494 7.68273 10.9494Z" fill="#3A8DAA"/>
<path d="M12.6827 6.94955H11.4062L12.6898 4.99175C12.8053 4.81525 12.8701 4.61347 12.8701 4.42867C12.8701 4.13459 12.7042 4 12.5239 4H10.3677C10.173 4 10.0505 4.24369 10.0505 4.52098C10.0505 4.81506 10.1947 5.05045 10.3677 5.05045H11.4712L10.1947 7.00845C10.1009 7.15134 10 7.33613 10 7.54622C10 7.75631 10.0938 8 10.3677 8H12.6827C12.8774 8 13 7.75631 13 7.47902C13 7.18494 12.8557 6.94955 12.6827 6.94955Z" fill="#3A8DAA"/>
<path d="M18.5464 10.8837H15.921L18.6429 6.78798C18.7491 6.6239 18.807 6.46792 18.807 6.33647C18.807 6.13957 18.6622 6 18.3725 6H14.6468C14.3283 6 14.1932 6.28724 14.1932 6.55807C14.1932 6.85361 14.3573 7.11634 14.6468 7.11634H16.886L14.1641 11.212C14.0579 11.368 14 11.5321 14 11.6635C14 11.8604 14.1255 12 14.4345 12H18.5464C18.8359 12 19 11.7045 19 11.4419C19 11.1792 18.8359 10.8837 18.5464 10.8837Z" fill="#3A8DAA"/>
<path d="M23.7586 7.59508C23.0981 6.90562 22.2411 6.43602 21.3017 6.24018C20.9955 4.59721 20.1311 3.09414 18.8308 1.96185C17.3781 0.696796 15.4975 0 13.5359 0C10.3791 0 7.54868 1.8047 6.30331 4.54953C6.05401 4.51689 5.80185 4.50057 5.54892 4.50057C2.4892 4.50057 0 6.89352 0 9.83492C0 12.7763 2.4892 15.1694 5.54892 15.1694H7.6492C8.32081 16.2951 9.56541 17 10.9432 17C12.3207 17 13.5655 16.2951 14.2371 15.1694H20.302C22.8925 15.1694 25 13.1432 25 10.6529C25 9.51641 24.5592 8.4305 23.7586 7.59508ZM20.302 13.7612H13.7816C13.4846 13.7612 13.2168 13.9337 13.1041 14.198C12.7428 15.0448 11.8946 15.5917 10.9432 15.5917C9.99191 15.5917 9.14368 15.0448 8.78222 14.198C8.66949 13.9337 8.40187 13.7612 8.1047 13.7612H5.54911C3.297 13.7612 1.46491 11.9999 1.46491 9.83492C1.46491 7.67008 3.297 5.90883 5.54911 5.90883C5.89817 5.90883 6.24475 5.95119 6.57951 6.03481C6.95012 6.12741 7.33237 5.92992 7.45655 5.58152C8.34618 3.08534 10.7894 1.40826 13.5359 1.40826C15.1334 1.40826 16.6645 1.9756 17.8473 3.00558C19.0221 4.0284 19.7599 5.42218 19.9249 6.93019C19.9615 7.2652 20.24 7.52834 20.5892 7.55786C21.3907 7.62552 22.1337 7.97759 22.6811 8.54914C23.2318 9.12382 23.5351 9.87104 23.5351 10.6529C23.5351 12.3669 22.0847 13.7612 20.302 13.7612Z" fill="#3A8DAA"/>
</svg>
