<svg width="30" height="30" viewBox="0 0 30 30" fill="none" xmlns="http://www.w3.org/2000/svg">
<path d="M24.0923 18.3812L23.515 16.3499C27.2681 7.01315 23.8431 0.46595 20.369 0.968449C19.2739 -0.17556 17.6921 -0.304436 15.5446 0.573386C14.9709 0.807706 15.3249 1.67586 15.8993 1.44096C19.433 -0.00327589 19.5502 2.11955 20.3072 1.93449C23.3472 1.18953 25.9072 7.69935 22.7174 15.8195C20.1618 15.465 19.9802 13.8278 19.3212 14.4827C19.2331 14.5704 19.1833 14.6894 19.183 14.8137C19.1826 14.938 19.2316 15.0573 19.3193 15.1455C20.2125 16.0436 21.3339 16.5838 22.6556 16.7557L23.1557 18.5153C18.9763 22.424 16.9825 21.915 17.3783 22.8647C17.402 22.9215 17.4366 22.9731 17.4802 23.0165C17.5239 23.0599 17.5756 23.0943 17.6326 23.1178C17.6895 23.1412 17.7505 23.1532 17.812 23.1531C17.8736 23.153 17.9346 23.1407 17.9914 23.117C20.6175 22.0234 22.9144 20.0211 23.7157 19.2763C31.0324 25.0325 28.0141 29.9931 29.5312 29.9931C29.6556 29.9931 29.7748 29.9438 29.8627 29.8559C29.9506 29.768 30 29.6488 30 29.5245C30 24.6138 27.9066 21.3194 24.0923 18.3812Z" fill="#FFB7A8"/>
<path d="M20.4525 10.7202C19.641 7.86486 16.4852 8.76559 17.1677 11.166C17.3371 11.762 18.2392 11.5067 18.0696 10.9098C17.7213 9.68448 19.089 9.35203 19.5506 10.9764C19.8304 11.9609 19.6917 12.8851 18.7102 13.1638C18.1135 13.3333 18.3698 14.2347 18.9665 14.0654C20.4572 13.642 20.8843 12.2394 20.4525 10.7202Z" fill="#FFB7A8"/>
<path d="M16.5349 19.2278C17.0159 20.5868 16.9199 21.5542 17.6265 21.3536C17.6857 21.3368 17.741 21.3085 17.7893 21.2703C17.8376 21.2321 17.8778 21.1848 17.9078 21.131C17.9378 21.0773 17.9569 21.0181 17.964 20.957C17.9711 20.8959 17.9661 20.834 17.9493 20.7748L17.3086 18.5208C17.2918 18.4616 17.2635 18.4063 17.2253 18.358C17.1871 18.3097 17.1397 18.2695 17.0859 18.2395C17.0322 18.2095 16.973 18.1905 16.9119 18.1833C16.8507 18.1762 16.7887 18.1812 16.7295 18.1981C13.5234 19.0072 13.1725 19.4541 12.4564 19.055C12.3217 18.9805 12.2031 18.8799 12.1076 18.7593C12.012 18.6386 11.9413 18.5002 11.8996 18.3521C11.3049 16.5068 11.4338 16.123 10.9994 16.0005L9.78094 15.6571C10.7474 12.957 10.8049 14.6715 9.82782 11.0631C11.2529 11.1871 12.08 10.6759 15.7758 9.69979C16.373 9.5302 16.1157 8.62883 15.5195 8.79824L11.3243 9.98964C8.63066 10.7037 6.93575 8.77352 6.02093 6.16864C7.66475 6.5056 9.64246 5.04766 12.6659 3.17966C13.1936 2.8536 12.7003 2.0565 12.1728 2.38244C9.23882 4.19526 6.71365 6.04492 5.61835 4.96875C5.31327 4.61551 4.71355 4.89541 4.81516 5.38268C5.25432 7.48863 6.6339 10.0758 8.78935 10.8389L9.58527 13.6391C8.39093 16.79 8.10853 16.0768 10.4925 16.8311C10.9626 18.1131 10.8541 19.2351 11.9996 19.8734C12.2413 20.009 12.5075 20.0953 12.7828 20.1274C13.0581 20.1594 13.337 20.1365 13.6034 20.06L16.5349 19.2278Z" fill="#FFB7A8"/>
<path d="M23.4076 22.0147C22.9766 22.0162 22.5502 22.1027 22.1526 22.2691C21.7551 22.4355 21.3942 22.6787 21.0907 22.9846C20.7872 23.2905 20.547 23.6532 20.3838 24.0519C20.2207 24.4507 20.1377 24.8777 20.1397 25.3086L20.1553 29.5263C20.1576 30.1513 21.0952 30.1455 21.0929 29.5228L21.0773 25.305C21.0747 24.6836 21.3191 24.0866 21.7569 23.6453C22.1946 23.204 22.7898 22.9546 23.4115 22.952C24.0332 22.9494 24.6304 23.1938 25.0718 23.6314C25.5133 24.0689 25.7627 24.6639 25.7654 25.2854L25.7809 29.5031C25.7814 29.6271 25.831 29.7459 25.9189 29.8334C26.0067 29.9209 26.1257 29.9701 26.2498 29.9701C26.2556 29.9674 26.7202 29.9493 26.7186 29.4997L26.703 25.2819C26.6984 24.4121 26.3489 23.5797 25.7311 22.9671C25.1133 22.3546 24.2777 22.0121 23.4076 22.0147Z" fill="#FFB7A8"/>
<path d="M16.0055 24.9122L15.9593 24.8012C16.272 23.057 16.9697 22.1657 16.2331 21.2226C15.8077 20.6779 14.7798 20.3354 14.5591 20.9244C13.0908 24.9094 13.085 24.6954 13.1319 24.9299C14.13 29.2202 13.8351 29.9932 14.5288 29.9931C14.5982 29.9932 14.6668 29.9779 14.7295 29.9482C14.7923 29.9186 14.8477 29.8754 14.8917 29.8218C14.9357 29.7681 14.9673 29.7054 14.9841 29.6381C15.0009 29.5708 15.0026 29.5006 14.989 29.4325L14.0776 24.8773L15.2952 21.6316C15.9398 21.9772 15.4789 22.5757 15.0121 24.7246C14.946 24.9882 15.0414 24.956 15.9717 27.2714C16.0133 27.3715 16.0883 27.454 16.184 27.505C16.2796 27.556 16.39 27.5722 16.4963 27.551C17.1153 27.4274 16.7811 26.6412 16.8733 25.4241C16.8733 24.6369 17.8109 24.6366 17.8109 25.4241C17.8109 28.2377 17.9244 28.2798 17.0106 29.1933C16.5723 29.6313 17.2347 30.2946 17.6736 29.8561C18.9052 28.6247 18.7485 28.1616 18.7485 25.4238C18.7485 23.5987 16.4481 23.4005 16.0055 24.9122Z" fill="#FFB7A8"/>
<path d="M12.1854 15.4651C12.8052 15.4651 12.8061 14.5278 12.1854 14.5278C11.5656 14.5278 11.5647 15.4651 12.1854 15.4651Z" fill="#FFB7A8"/>
<path d="M0.465195 18.7456C-0.154625 18.7456 -0.155504 19.6829 0.465195 19.6829C1.08589 19.6829 1.08589 18.7456 0.465195 18.7456Z" fill="#FFB7A8"/>
<path d="M2.34052 19.6829C2.96035 19.6829 2.96122 18.7456 2.34052 18.7456C1.71983 18.7456 1.71983 19.6829 2.34052 19.6829Z" fill="#FFB7A8"/>
<path d="M4.21568 19.6829C4.8355 19.6829 4.83638 18.7456 4.21568 18.7456C3.59586 18.7456 3.59498 19.6829 4.21568 19.6829Z" fill="#FFB7A8"/>
<path d="M9.37256 21.0889C9.37256 21.7085 10.3102 21.7094 10.3102 21.0889C10.3102 20.4684 9.37256 20.4684 9.37256 21.0889Z" fill="#FFB7A8"/>
<path d="M14.0604 15.4651C14.6802 15.4651 14.6811 14.5278 14.0604 14.5278C13.4406 14.5278 13.4397 15.4651 14.0604 15.4651Z" fill="#FFB7A8"/>
<path d="M20.1549 19.2145C20.1549 18.5949 19.2173 18.5941 19.2173 19.2145C19.2173 19.835 20.1549 19.835 20.1549 19.2145Z" fill="#FFB7A8"/>
<path d="M18.2798 17.8086C18.2798 18.4282 19.2174 18.4291 19.2174 17.8086C19.2174 17.1881 18.2798 17.1881 18.2798 17.8086Z" fill="#FFB7A8"/>
<path d="M16.8735 16.4024C16.8735 17.022 17.8111 17.0229 17.8111 16.4024C17.8111 15.7819 16.8735 15.7819 16.8735 16.4024Z" fill="#FFB7A8"/>
<path d="M15.9357 15.9339C16.5556 15.9339 16.5564 14.9966 15.9357 14.9966C15.315 14.9966 15.315 15.9339 15.9357 15.9339Z" fill="#FFB7A8"/>
<path d="M14.0604 2.34353C14.6802 2.34353 14.6811 1.40625 14.0604 1.40625C13.4406 1.40625 13.4397 2.34353 14.0604 2.34353Z" fill="#FFB7A8"/>
<path d="M3.74681 17.8087H7.96607C8.58583 17.8087 8.58677 16.8714 7.96607 16.8714H3.74681C3.49823 16.8711 3.25991 16.7723 3.08414 16.5966C2.90837 16.4209 2.80949 16.1826 2.80919 15.9341C2.80919 14.6936 4.68442 14.6952 4.68442 15.9341C4.68442 16.0584 4.73381 16.1776 4.82173 16.2655C4.90965 16.3534 5.02889 16.4028 5.15323 16.4028C6.13813 16.4028 5.53413 14.0596 3.74681 14.0596C3.24947 14.0596 2.7725 14.2571 2.42082 14.6086C2.06915 14.9602 1.87158 15.437 1.87158 15.9341C1.87158 16.4313 2.06915 16.9081 2.42082 17.2596C2.7725 17.6112 3.24947 17.8087 3.74681 17.8087Z" fill="#FFB7A8"/>
<path d="M7.96607 20.6206H3.74681C3.37592 20.6206 3.01337 20.7305 2.70499 20.9365C2.39661 21.1425 2.15626 21.4353 2.01433 21.7778C1.87239 22.1203 1.83526 22.4972 1.90761 22.8609C1.97997 23.2245 2.15857 23.5585 2.42082 23.8207C2.68308 24.0828 3.01721 24.2614 3.38097 24.3337C3.74473 24.406 4.12177 24.3689 4.46443 24.227C4.80708 24.0852 5.09995 23.8449 5.306 23.5366C5.51205 23.2283 5.62203 22.8659 5.62203 22.4952C5.62203 21.8756 4.68442 21.8747 4.68442 22.4952C4.68442 23.7357 2.8092 23.7341 2.8092 22.4952C2.80949 22.2467 2.90837 22.0084 3.08414 21.8327C3.25991 21.657 3.49823 21.5582 3.74681 21.5579H7.96607C8.58583 21.5579 8.58677 20.6206 7.96607 20.6206Z" fill="#FFB7A8"/>
<path d="M9.84111 18.7456H6.09066C5.4709 18.7456 5.46996 19.6829 6.09066 19.6829H9.84111C10.4609 19.6829 10.4618 18.7456 9.84111 18.7456Z" fill="#FFB7A8"/>
</svg>
