<svg width="15" height="28" viewBox="0 0 15 28" fill="none" xmlns="http://www.w3.org/2000/svg">
<path opacity="0.3" d="M14.6593 0.415789C14.5135 0.158594 14.2411 0 13.9455 0H4.10178C3.72525 0 3.39762 0.256375 3.30629 0.621633L0.0250416 13.8013C-0.0366459 14.0464 0.018643 14.306 0.174065 14.5047C0.329487 14.7041 0.568198 14.8203 0.820526 14.8203H4.55842L0.0523307 26.8913C-0.0918803 27.2758 0.0707604 27.7076 0.432026 27.9022C0.794932 28.0967 1.24392 27.9926 1.48383 27.6619L14.6088 9.56031C14.7907 9.31115 14.8163 8.98111 14.6769 8.70554C14.5368 8.43079 14.254 8.25776 13.9455 8.25776H10.4728L14.6489 1.24245C14.8011 0.988531 14.8051 0.67293 14.6593 0.415789Z" fill="#FFB7A8"/>
</svg>
