<svg height="512" viewBox="0 0 512 512" width="512" xmlns="http://www.w3.org/2000/svg"><g id="Sneeze"><g id="Outline"><path d="m351.928 222.567c-10.578 0-10.591 16 0 16 26.444 0 40-21.036 40-48 0-50.606-56-50.611-56-8 0 10.576 16 10.593 16 0 0-21.881 24-20.661 24 8 0 9.622-2.339 32-24 32z"/><path d="m367.928 384a56.063 56.063 0 0 0 -56 56v64c0 10.576 16 10.592 16 0v-64a40 40 0 0 1 80 0v64c0 10.576 16 10.592 16 0v-64a56.063 56.063 0 0 0 -56-56z"/><path d="m481.858 165.527c9.357-39.777 7.954-75.806-3.952-101.452-9.144-19.7-23.885-31.621-41.853-34.024-17.63-33.144-57-33.26-93.884-26.51-10.4 1.9-7.538 17.653 2.881 15.738 81.679-14.95 71.42 25.834 85.489 26.346 17.792.646 27.687 14.053 32.855 25.186 10.252 22.086 11.305 55.273 2.889 91.052-9.592 40.774-30.626 83.191-60.958 123.009-13.782-6.064-24.562-14.49-32.843-25.641-6.3-8.492-19.16 1.032-12.845 9.538 10.046 13.53 23.589 23.994 40.291 31.181v31.231c-14.3 7.364-63.585 31.165-111.646 35.965 23.592-33.786 12.812-4.16 15.646-63.146a8 8 0 0 0 -9.941-7.761l-35.811 8.953a22.411 22.411 0 0 1 -24.119-9.314c5.186-4.038 34.49-9.358 30.887-36.418-2.374-17.836-17.335-27.931-46.388-11.878-2.812-7.888-2.333-11.87-6.436-14.395l-18.4-11.322c20.014-26.605 22.2-26.5 22.2-31.3v-43.935c21.488 8.2 50.958 5.4 104 5.37 10.578 0 10.591-16 0-16h-74.12c-1.412-.994-63.86 6.718-69.525-87.478 21.822 11.343 54.077 2.123 102.836-12.209.813-.5 13.374-1.693 10.52-11.424-2.866-9.775-14.046-3.949-15.032-3.926-39.083 11.487-87.147 27.407-99.323 5.987-3.358-7.228-14.51-5.427-15.116 3.05-2.613 36.35 8.11 85.631 39.768 108.088v49.737c-34.522 46.458-35.818 33.027 1.213 57.392l5.059 16.843a8 8 0 0 0 12.024 4.406c17.967-11.685 25.234-11.424 27.526-10.773 3.685 1.052 6.066 12.374-1.7 17.31l-24.05 12.01c-14.2 7.093 9.443 43.85 42.054 35.7l25.871-6.468v26.806c-34.878 41.873-64 104.344-64 162.948 0 10.576 16 10.592 16 0 0-48 20.13-91.528 37.447-120.094 53.454-1.729 109.661-28.142 128.2-37.617 75.964 104.812 34.853 165.712 58.356 165.712a8 8 0 0 0 8-8c0-58.6-9.422-107.735-56-170.653v-36.025c32.822-42.384 55.604-87.901 65.93-131.795z"/><path d="m311.94 24c10.577 0 10.592-16 0-16s-10.592 16 0 16z"/><path d="m183.94 256h-80c-10.578 0-10.591 16 0 16h80c10.579 0 10.592-16 0-16z"/><path d="m183.94 288h-104c-10.578 0-10.591 16 0 16h104c10.579 0 10.592-16 0-16z"/><path d="m108.734 323.994c-12.515 21.634-45.617 11.852-44.78-12.507-.032-.1.387-6.6-6-8.238-23.932-6.139-23.941-40.356 0-46.5a8 8 0 0 0 6.008-8.006l-.008-.231c-.837-24.341 32.228-34.175 44.771-12.507a8 8 0 0 0 10.931 2.917c13.272-7.68-9.167-30.922-31.716-30.922a40.058 40.058 0 0 0 -39.713 35.2c-32.331 13.772-32.308 59.835 0 73.6 4.551 37.9 55.105 48.487 74.357 15.208 5.296-9.158-8.549-17.183-13.85-8.014z"/></g></g></svg>