<svg width="20" height="29" viewBox="0 0 20 29" fill="none" xmlns="http://www.w3.org/2000/svg">
<g opacity="0.3">
<path d="M9.94328 18.5641H9.94413C9.94413 18.5641 9.94469 18.5641 9.94498 18.5641C12.1194 18.5637 13.882 16.8009 13.882 14.6263V12.3949C13.882 10.22 12.119 8.45703 9.94418 8.45703C7.76934 8.45703 6.00635 10.2201 6.00635 12.3949V14.6263C6.00623 16.8009 7.76883 18.5637 9.94328 18.5641Z" fill="#FFB7A8"/>
<path d="M13.9702 18.5723C12.9462 19.6181 11.5196 20.2683 9.9438 20.2683C8.36799 20.2683 6.94139 19.6181 5.91742 18.5723C4.41797 18.6451 3.22461 19.8838 3.22461 21.4013V28.9998H16.6629V21.4013C16.663 19.8838 15.4696 18.6452 13.9702 18.5723Z" fill="#FFB7A8"/>
<path d="M8.9906 5.71793L10.5448 6.40534L11.8575 3.43749L10.1745 2.38785L10.9146 0.673641L9.35425 0L8.03467 3.0564L9.70651 4.09901L8.9906 5.71793Z" fill="#FFB7A8"/>
<path d="M19.6822 5.10896L19.0553 3.5293L15.9609 4.75744L16.4059 6.67685L14.7549 7.31536L15.3679 8.90047L18.3947 7.72999L17.9467 5.79779L19.6822 5.10896Z" fill="#FFB7A8"/>
<path d="M5.37117 8.05262L4.2007 5.02585L2.26849 5.4738L1.57967 3.73828L0 4.36524L1.22803 7.4596L3.14755 7.0146L3.78607 8.66559L5.37117 8.05262Z" fill="#FFB7A8"/>
</g>
</svg>
