<svg width="23" height="27" viewBox="0 0 23 27" fill="none" xmlns="http://www.w3.org/2000/svg">
<path d="M22.9339 21.0782C23.1703 20.3061 22.7522 19.4835 22.0002 19.2409C18.6437 18.158 17.2183 11.9865 16.8842 9.71063C16.8352 9.38836 16.6731 9.07576 16.6731 9.07576C16.0567 7.87157 13.7235 7.30966 13.4609 7.27718C12.9893 7.21893 12.9293 6.84859 12.9095 6.72268C13.7334 6.1343 14.2898 4.71373 14.2898 3.43074C14.2897 1.53604 14.0949 0 11.5806 0C11.5469 0 11.4178 0 11.384 0C8.86969 0 8.67496 1.53604 8.67496 3.43074C8.67496 4.71373 9.23133 6.1343 10.0552 6.72268C10.0354 6.84859 9.95707 7.2252 9.50375 7.27718C9.22115 7.30975 6.54268 7.95873 6.18256 9.35997C6.18256 9.35997 6.13829 9.56034 6.11149 9.71629C6.10792 9.73728 5.83042 11.8538 5.00002 14.1528C4.29166 16.1137 3.02269 18.5883 0.999731 19.2409C0.247696 19.4835 -0.170262 20.3061 0.0660264 21.0783C0.256007 21.6988 0.810853 22.0972 1.41167 22.104C0.208682 22.8143 0.0326101 23.8046 0.0326101 24.3179C0.0326101 24.5218 0.135319 25.185 0.604673 25.796C1.02602 26.3453 1.86609 27 3.47406 27C3.71535 27 3.97047 26.9852 4.23254 26.9563C5.30212 26.8382 6.38068 26.6608 7.42346 26.4894C7.80198 26.4271 8.18016 26.365 8.55893 26.3055C9.06331 26.2259 9.97276 26.1733 11.2614 26.149H11.7032C12.9918 26.1733 13.9013 26.226 14.4057 26.3055C14.7844 26.365 15.1626 26.4271 15.5412 26.4894C16.5839 26.6608 17.6625 26.8382 18.7321 26.9563C18.9942 26.9852 19.2493 27 19.4905 27C21.0985 27 21.9386 26.3452 22.3599 25.796C22.8293 25.185 22.932 24.5218 22.932 24.3179C22.932 23.8045 22.7559 22.8141 21.5527 22.1038C21.5594 22.1039 21.5661 22.1046 21.5727 22.1046C22.1795 22.1046 22.7424 21.704 22.9339 21.0782ZM6.25847 20.8927C5.53451 21.124 5.36827 21.1483 4.74897 21.2386C4.54745 21.2677 4.29972 21.304 3.97157 21.3559C3.65022 21.391 3.35558 21.4381 3.08401 21.4947C4.94539 20.4388 6.44667 18.4259 7.55933 15.4874C7.62141 16.0599 7.65983 16.6905 7.65983 17.3838C7.65983 19.6458 6.54386 20.8014 6.25847 20.8927ZM18.993 21.3559C18.6649 21.304 18.4176 21.264 18.2156 21.2386C16.2653 20.992 15.3048 19.6459 15.3048 17.3838C15.3048 16.6608 15.3463 16.0055 15.4132 15.4137C16.5326 18.4029 18.0501 20.4451 19.9365 21.5066C19.6497 21.4446 19.3365 21.3935 18.993 21.3559Z" fill="#3A8DAA"/>
</svg>
